<svg xmlns="http://www.w3.org/2000/svg" xmlns:xlink="http://www.w3.org/1999/xlink" viewBox="0 0 540.38 591.46"><defs><style>.cls-1,.cls-8{fill:none;}.cls-2{fill:#0086ff;}.cls-3{clip-path:url(#clip-path);}.cls-4{fill:#f91a71;}.cls-5{fill:#ffe98f;}.cls-6{fill:#1c1135;}.cls-7{fill:#fbc430;}.cls-8{stroke:#1c1135;stroke-linejoin:round;stroke-width:10.27px;}.cls-9{fill:#a5b5fd;}.cls-10{clip-path:url(#clip-path-2);}.cls-11{fill:#fff;}</style><clipPath id="clip-path"><rect class="cls-1" x="26.74" y="16.03" width="477.03" height="306.04"/></clipPath><clipPath id="clip-path-2"><rect class="cls-1" x="88.01" y="269.98" width="354.54" height="59.05"/></clipPath></defs><g id="Livello_2" data-name="Livello 2"><g id="Livello_1-2" data-name="Livello 1"><polygon class="cls-2" points="273.01 416.67 233.08 416.67 193.53 465.22 193.53 416.67 162.17 416.67 162.17 546.01 193.53 546.01 193.53 515.52 205.39 500.74 239.91 546.01 279.09 546.01 225.69 475.41 273.01 416.67"/><path class="cls-2" d="M507.16,425.24a66.54,66.54,0,0,0-33.28-8.57H418.8V546h55.08a68.55,68.55,0,0,0,33.53-8.39,63.41,63.41,0,0,0,24.09-23,61.89,61.89,0,0,0,8.88-32.72,63.49,63.49,0,0,0-8.94-33.1A65.12,65.12,0,0,0,507.16,425.24Zm-2.92,73.82a34.87,34.87,0,0,1-30.36,17.14H450.22V446.41h23.66a33.93,33.93,0,0,1,17.63,4.72,35.31,35.31,0,0,1,12.73,12.73,35.17,35.17,0,0,1,0,35.2Z"/><path class="cls-2" d="M373.84,496.89a31.59,31.59,0,0,1-12.29,13.41,34.08,34.08,0,0,1-34.9.44,34.36,34.36,0,0,1-12.41-12.36,33.61,33.61,0,0,1,0-34.15,35.48,35.48,0,0,1,12.41-12.42,33.55,33.55,0,0,1,34.53.25,35.52,35.52,0,0,1,12.42,12.79l26.88-14.34a64.59,64.59,0,0,0-89.16-25.15,64.32,64.32,0,0,0-23.54,23.53,64.8,64.8,0,0,0,0,64.83,64.32,64.32,0,0,0,23.54,23.53,64.62,64.62,0,0,0,65.88-.68,64.26,64.26,0,0,0,23.65-25Z"/><path class="cls-2" d="M133.3,495.46l-11.49-49.8a8.92,8.92,0,0,0-4.78-6L70.58,417.54a8.82,8.82,0,0,0-7.7,0L16.5,439.7a8.92,8.92,0,0,0-4.78,6L.23,495.46a8.08,8.08,0,0,0,0,3.85,7.79,7.79,0,0,0,.31,1.12,10,10,0,0,0,.87,1.8,5.72,5.72,0,0,0,.5.68L18.43,523.4c.06-.24.06-.55.12-.8.31-2.11-.37-4-1.06-5.9-1.18-3.23-2.79-6.34-3.29-9.81A86.34,86.34,0,0,1,13.89,495a17.82,17.82,0,0,0-1.24-6.28c-.87-2.73-2.11-5.34-2.48-8.19a10,10,0,0,1,.18-4.29c.31-.87.81-1.61,1.74-1.61a1.91,1.91,0,0,1,1.8,1.55c.5,1.74.87,3.54,1.25,5.34a39,39,0,0,0,2.42,7.45c.68,1.56,1.24,1.62,2.29.25a3.93,3.93,0,0,0,.75-2.36c.25-4.84.5-9.62.74-14.47a17.07,17.07,0,0,1,1-4.59,2.3,2.3,0,0,1,2.48-1.86c1.31.18,1.37,1.42,1.31,2.48a122.59,122.59,0,0,0-.31,14.47,5.67,5.67,0,0,0,.74,3.41c.06-6.45,1.93-12.17,2.67-18.13a6.53,6.53,0,0,1,.62-2.23,2.46,2.46,0,0,1,2.61-1.31c1.18.25,1.18,1.31,1.12,2.24-.38,3.29-.93,6.58-1.25,9.87-.37,3.48-.49,7-.8,10.8a3.33,3.33,0,0,0,1.18-2.35,55.34,55.34,0,0,0,2.11-9.51,7.84,7.84,0,0,1,.68-2.42,2.35,2.35,0,0,1,2.55-1.74c1.24.19,1.05,1.49,1.11,2.43.13,4.22-.8,8.32-1.36,12.41a53.89,53.89,0,0,0-.19,14.85,7.21,7.21,0,0,0,.44,1.67c.74,2,1.67,2.36,3.54,1.24A7.89,7.89,0,0,0,43,503c2.86-2.73,6.15-2.36,9.5-1.18a3.4,3.4,0,0,1,1.81,1.43c.86,1.49.49,2.6-1.25,2.48-4.9-.43-7.7,2.42-10.37,5.77-1.67,2.12-4.16,2.92-6.52,3.73-2,.68-2.67,1.8-2.6,3.91.12,7.64.12,15.28.12,22.91v.25l.37.5c.13.19.31.31.44.5a9.15,9.15,0,0,0,1.67,1.42,9.38,9.38,0,0,0,2.55,1.12,9.09,9.09,0,0,0,2.24.31h.49l19.93-.25c.07-3.78.13-7.57.19-11.3.06-5.65,1.8-11,2.42-16.58a92.83,92.83,0,0,0-.06-22.35,5.29,5.29,0,0,0-3.66-4.9c-2.55-.94-3.85-3.54-5.65-5.47-5.41-5.71-9.38-12.6-15.22-18a1.63,1.63,0,0,1-.49-2,2.79,2.79,0,0,1,2.79-1.62,8.55,8.55,0,0,1,6,3,47.51,47.51,0,0,0,5.78,5.47c2.29,1.73,3,1.49,4.22-1.06a20.4,20.4,0,0,0,1-14.34c-1.3-5.09-3.16-10.12-2.92-15.53.13-3.16.87-5,2.49-5,2.73.12,2.42,2.6,2.73,4.28,1,5.4,2,10.87,4,16,.24.68.31,2,1.42,1.68.87-.25.5-1.31.44-2-.44-6.4-1.12-12.79.06-19.19A6.41,6.41,0,0,1,68,433.87a2.37,2.37,0,0,1,2.54-1.06A2,2,0,0,1,72,434.92a70.52,70.52,0,0,1,0,7.27c-.31,4.65.56,9.19,1,13.78.07.62,0,1.62.87,1.62.69,0,1.06-.87,1.18-1.49,1.12-4.85,3-9.57,3.6-14.53a11.2,11.2,0,0,1,.94-3.73,2,2,0,0,1,2.35-1.24,2,2,0,0,1,1.93,2.11,6,6,0,0,1-.06,1.8c-1.12,6.09-1.68,12.29-3.54,18.26-.06.31-.13.55-.19.87-.12.68-.37,1.55.31,1.86s1.37-.44,1.8-1a42.75,42.75,0,0,0,6.46-9.56,4.86,4.86,0,0,1,1.12-1.67,2.29,2.29,0,0,1,2.67-.81c1.24.56.81,1.61.68,2.54a9.34,9.34,0,0,1-1.74,4.41c-5.21,7.08-6.95,15.15-6.89,23.72a17,17,0,0,1-1.74,7.39,14.4,14.4,0,0,0-1,7.08c.43,8.07,2.11,16,3,24a146.7,146.7,0,0,1,.81,28.56h6.89a4.85,4.85,0,0,0,.93-.06,8.63,8.63,0,0,0,1.31-.25,4.83,4.83,0,0,0,.93-.31,2.93,2.93,0,0,0,.68-.31,8.26,8.26,0,0,0,1-.56,7.4,7.4,0,0,0,2.11-1.86l.38-.93c.8-9.87-.19-19.69-.69-29.5-.24-5.21-5.09-11.36-11.61-11.48-1.18,0-2.79.37-2.85-1.62a2.8,2.8,0,0,1,2.67-2.85,11.64,11.64,0,0,1,6,.62c4,1.43,6.27-.62,5.15-4.85a81.58,81.58,0,0,1-2.29-14,9.32,9.32,0,0,1,.06-3.72c.37-1.18.93-2.24,2.36-2.18s1.43,1.43,1.61,2.49a40.93,40.93,0,0,0,3.54,11.8,9.29,9.29,0,0,0,1.12-4.23c.19-3,1.18-5.83,1.49-8.81a3.63,3.63,0,0,1,.56-1.56,2.05,2.05,0,0,1,2.3-1.3,2,2,0,0,1,1.55,2.36c-.19,2.79-.5,5.65-.75,8.44a20.31,20.31,0,0,0,.06,5.1c1.12-3.17,2.24-6.34,3.3-9.5.55-1.62.68-3.92,3.1-3.23,2.17.68,1,2.73.68,4.09-.74,3.79-1.74,7.52-2.6,11.31-.19.86-.63,2,.49,2.54s1.55-.56,2.11-1.18c2.24-2.48,4.35-5,6.59-7.45.62-.68,1.3-1.92,2.54-1.12,1.06.75.81,2,.31,3.05a23.4,23.4,0,0,1-3.41,5.34,16.26,16.26,0,0,0-4.16,8.32,22.68,22.68,0,0,1-1.74,6.08c-2.55,5.34-2.67,10.87-1.8,16.58l.18,1.12,15.84-19.69a8,8,0,0,0,1.36-2.48,6.68,6.68,0,0,0,.31-1.12A8,8,0,0,0,133.3,495.46Z"/><g class="cls-3"><path class="cls-4" d="M404.89,149.14,265.28,81.87,261,246.25,125.61,149.14,91.09,300.28l144.64-38.57,31.78-9.07,171.84,47.64Z"/><path class="cls-5" d="M151.4,168.08,123.27,291.32l140.24-39.65,143.78,39.65L379.16,168.08,265.28,113.25l-4.22,132.31Z"/><path class="cls-6" d="M418,292.74v-.28a.33.33,0,0,0-.06-.23.48.48,0,0,0-.06-.28v-.06L388.46,163l-.17-.51v-.06a3.2,3.2,0,0,0-.17-.4.21.21,0,0,0-.06-.11l-.17-.34c-.06-.06-.06-.12-.11-.17a.43.43,0,0,0-.23-.23l-.17-.17-.23-.23c-.06-.06-.11-.12-.17-.12s-.17-.11-.23-.17-.11-.05-.17-.11-.17-.12-.29-.17a.05.05,0,0,1-.05-.06l-119.13-57.4h-.06c-.06,0-.17,0-.23-.11s-.17-.06-.23-.11-.17-.06-.22-.06-.18-.06-.29-.06a.33.33,0,0,1-.23-.06.56.56,0,0,1-.28,0h-.74a.49.49,0,0,0-.29,0c-.06,0-.11.06-.23.06a2.13,2.13,0,0,0-.28.06c-.06,0-.17.06-.23.06s-.17,0-.29.11h-.05L257,105.78v11.41l8.33-4L379.16,168l28.13,123.24,9.81,4.11a1.21,1.21,0,0,0,.29-.46h0a4.89,4.89,0,0,0,.23-.45c0-.06.05-.12.05-.17a.81.81,0,0,0,.12-.35c0-.05,0-.11,0-.17s.06-.23.06-.34v-.23a.48.48,0,0,1,.06-.28C418,292.92,418,292.86,418,292.74Z"/><path class="cls-6" d="M144.33,160.09a.06.06,0,0,0-.06.06c-.11.06-.17.11-.29.17s-.11.06-.17.12-.17.11-.23.17-.11.11-.17.11-.17.12-.22.23l-.18.17a.78.78,0,0,1-.22.23c-.06.06-.06.11-.12.17l-.17.34a.21.21,0,0,1-.06.12c-.05.11-.11.28-.17.45v.06l-.17.51L112.66,291.89V292c0,.11-.06.17-.06.28a.39.39,0,0,1,0,.23V293a.49.49,0,0,0,0,.29v.23c0,.11.06.22.06.34s.06.11.06.17.06.23.11.34.06.12.06.17a3.27,3.27,0,0,0,.23.46h0c.11.17.17.29.28.46l9.82-4.11,28.12-123.24Z"/><path class="cls-6" d="M449,304.73l.34-.52h0a2.5,2.5,0,0,0,.28-.57c0-.05.06-.11.06-.17s.12-.28.17-.4.06-.17.06-.23.06-.28.11-.4a.48.48,0,0,1,.06-.28c0-.12.06-.23.06-.34v-.63a.51.51,0,0,0-.06-.29c0-.11-.06-.22-.06-.34v-.11l-35.6-155.93-.17-.63a.06.06,0,0,0-.06-.06,1.64,1.64,0,0,0-.23-.51c0-.06,0-.11-.11-.17s-.17-.29-.23-.4l-.17-.17c-.06-.12-.17-.23-.23-.34l-.17-.18-.28-.28c-.06-.06-.17-.11-.23-.17s-.17-.17-.29-.23-.17-.11-.22-.17l-.35-.17a.05.05,0,0,1-.05-.06L267.51,71.55h-.06c-.11-.06-.23-.06-.29-.12s-.17-.06-.28-.11a.62.62,0,0,0-.29-.06c-.11,0-.22-.06-.34-.06a.56.56,0,0,1-.28,0c-.12,0-.23-.06-.35-.06H265a.51.51,0,0,0-.29.06,1.27,1.27,0,0,0-.4,0c-.11,0-.17.06-.28.06s-.23.06-.35.11-.17.06-.28.12-.23.06-.34.11H263l-6.11,3V86l8.33-4,139.67,67.26,34.52,151.14Z"/><path class="cls-6" d="M263.51,251.67,91.15,300.28l34.52-151.14,8.73-4.22L125,138,119,140.92a.05.05,0,0,0,0,.06l-.35.17c0,.06-.17.12-.22.17s-.17.17-.29.23-.17.12-.23.17-.17.17-.28.29l-.17.17a1.14,1.14,0,0,0-.23.34l-.17.17c-.06.12-.17.29-.23.4s-.06.12-.11.17-.18.35-.23.52a.05.05,0,0,1-.06.05l-.17.63L80.6,300.39v.11c0,.12-.06.23-.06.35a.48.48,0,0,1-.06.28v.63a.68.68,0,0,0,.06.34.51.51,0,0,0,.06.29,1.35,1.35,0,0,0,.11.4s.06.17.06.22.11.29.17.4.06.12.06.18.17.39.28.57h0l.34.51Z"/><path class="cls-6" d="M256.89,57.91v177l-145.71-107a4.25,4.25,0,0,0-5.76.74,12.89,12.89,0,0,1-5.25-1.49,22.91,22.91,0,0,1-8.68-8c-3.08-4.8-9.87-13.53-17.23-10.67a4.15,4.15,0,0,0-2.62,3.59C71.13,120,81.4,123.75,87,125.35a21.15,21.15,0,0,1,10.15,6,12.45,12.45,0,0,1,3,4.56,4.34,4.34,0,0,0,1.14,5.54L246.45,248,65,298.62l4.51,16.09,180.81-50.44,17.28-11.63,12.78,11.63,144.92,40.4,4.28-16.15L284.05,248,429.26,141.38a4.27,4.27,0,0,0,1.14-5.53,12.3,12.3,0,0,1,3-4.57,21.71,21.71,0,0,1,10.16-6c5.59-1.54,15.86-5.36,15.35-13.24a4.29,4.29,0,0,0-2.63-3.59c-7.36-2.85-14.15,5.88-17.23,10.67a22.59,22.59,0,0,1-8.67,8,13,13,0,0,1-5.25,1.48,4.27,4.27,0,0,0-5.76-.74l-145.72,107v-177a4.28,4.28,0,0,0-4-4.22,12.65,12.65,0,0,1-1.89-5.08,23,23,0,0,1,1.32-11.75c2.05-5.31,5.07-16-1.6-20.2a4.16,4.16,0,0,0-4.45,0c-6.68,4.22-3.65,14.72-1.6,20.2a21.72,21.72,0,0,1,1.2,11.75,13,13,0,0,1-1.94,5.13A4.31,4.31,0,0,0,256.89,57.91Z"/></g><path class="cls-7" d="M362.05,234.44a14.45,14.45,0,1,1-.75,20.42A14.49,14.49,0,0,1,362.05,234.44Z"/><path class="cls-7" d="M337.23,219.54a8.36,8.36,0,1,1-.46,11.81A8.33,8.33,0,0,1,337.23,219.54Z"/><path class="cls-7" d="M166.46,257a14.42,14.42,0,1,1,2.4-20.25A14.36,14.36,0,0,1,166.46,257Z"/><path class="cls-7" d="M202.75,236.43a8.33,8.33,0,1,1,1.37-11.69A8.33,8.33,0,0,1,202.75,236.43Z"/><path class="cls-7" d="M290.1,165.69a14.45,14.45,0,1,0-7.25-19.12A14.48,14.48,0,0,0,290.1,165.69Z"/><path class="cls-7" d="M308.41,195.18a8.32,8.32,0,1,0-4.16-11A8.35,8.35,0,0,0,308.41,195.18Z"/><path class="cls-5" d="M224.32,40.28,121.39,89.86,224.32,165.4Z"/><path class="cls-4" d="M224.32,10.67,94,73.43l17.46,12.84L224.32,31.89Z"/><path class="cls-8" d="M226.6,172.42V5.13L89,71.37Z"/><path class="cls-8" d="M225.06,37.2,115.74,89.86"/><path class="cls-7" d="M205,118.79a14.45,14.45,0,1,1,7.25-19.12A14.46,14.46,0,0,1,205,118.79Z"/><path class="cls-7" d="M161.27,101.5a8.32,8.32,0,1,1,4.17-11A8.34,8.34,0,0,1,161.27,101.5Z"/><path class="cls-9" d="M86.82,399.49a.93.93,0,0,1-.75-.34L60.17,366a1.12,1.12,0,0,1-.17-.86.88.88,0,0,1,.63-.57l26.7-8a1,1,0,0,1,.8.18.9.9,0,0,1,.34.74l-.86,41.25a.91.91,0,0,1-.62.85Z"/><path class="cls-9" d="M442.61,399.49a.59.59,0,0,1-.29-.05.94.94,0,0,1-.63-.86l-.85-41.25a.91.91,0,0,1,.34-.74,1,1,0,0,1,.8-.17l26.7,8a.92.92,0,0,1,.63.57.83.83,0,0,1-.17.86l-25.91,33.2C443.18,399.38,442.89,399.49,442.61,399.49Z"/><path class="cls-2" d="M504.34,349.63,530,301.87a1.87,1.87,0,0,0,0-1.82,1.84,1.84,0,0,0-1.6-.91H476.72A1.83,1.83,0,0,0,474.9,301V367.2c-3.65,4.34-7.25,8.84-10.73,13.24C459.49,386.37,455,392,450.48,397a1.75,1.75,0,0,0-.29,2,1.83,1.83,0,0,0,1.72,1.08h76.51a1.88,1.88,0,0,0,1.65-2.74Z"/><path class="cls-2" d="M79.74,397c-4.56-5.07-9.13-10.78-13.92-16.83-3.48-4.33-7-8.78-10.61-13.06V301a1.84,1.84,0,0,0-1.83-1.82H1.86a1.9,1.9,0,0,0-1.6.91,1.87,1.87,0,0,0-.05,1.82l25.67,47.76L.21,397.38a1.89,1.89,0,0,0,.05,1.83,1.84,1.84,0,0,0,1.6.91H78.37A1.88,1.88,0,0,0,80.08,399,2.18,2.18,0,0,0,79.74,397Z"/><path class="cls-2" d="M264.65,246.42A970.07,970.07,0,0,0,60.91,268.1v97.1a873.29,873.29,0,0,1,206.31-24.42A859,859,0,0,1,468.57,365.2V268.1A970.61,970.61,0,0,0,264.65,246.42Z"/><path class="cls-2" d="M60.91,366.17a.92.92,0,0,1-.57-.17.9.9,0,0,1-.34-.74V268.1a.93.93,0,0,1,.74-.92,973.3,973.3,0,0,1,204-21.73h.06a965.66,965.66,0,0,1,204,21.73,1,1,0,0,1,.75.92v97.1a.94.94,0,0,1-.35.75,1,1,0,0,1-.8.17,859,859,0,0,0-201.17-24.37c-69.09-.22-136.47,7.76-206.08,24.37C61.08,366.12,61,366.17,60.91,366.17Zm.92-97.27v95.22c68.52-16.26,134.93-24.19,202.88-24.19h2.51a862.77,862.77,0,0,1,200.43,24.13V268.9a966.24,966.24,0,0,0-202.94-21.51h-.06A963.08,963.08,0,0,0,61.83,268.9Z"/><g class="cls-10"><path class="cls-11" d="M122,324.41c-5.13-5.48-10.38-10.9-15.69-16.32,1.09,6.11,2.17,12.27,3.2,18.37-4.45.8-9,1.6-13.41,2.46q-4-21.15-8-42.28,7-1.36,14-2.57c1,5.94,2,11.93,3.14,17.86,3.14-6.67,6.39-13.35,9.7-20q8-1.27,15.91-2.39c-4.16,7.53-8.27,15.12-12.21,22.71,6.57,6.5,13,13.12,19.29,19.74C132.57,322.76,127.27,323.55,122,324.41Z"/><path class="cls-11" d="M140.62,288.41a18.17,18.17,0,0,1,6.67-8.67,24.27,24.27,0,0,1,11.47-4.17,24.75,24.75,0,0,1,10.73,1,18.86,18.86,0,0,1,8,5.19,20.08,20.08,0,0,1,4.62,8.56c-4.9.46-9.75.91-14.66,1.43a7.65,7.65,0,0,0-3.19-3,7.57,7.57,0,0,0-4.4-.68,6.69,6.69,0,0,0-5.25,3.19,12.61,12.61,0,0,0,1.66,13.64,6.58,6.58,0,0,0,5.76,1.88,7.55,7.55,0,0,0,6.5-5.25c4.85-.51,9.65-1,14.5-1.43a21.92,21.92,0,0,1-2.91,9.25,19,19,0,0,1-6.62,6.62,23.21,23.21,0,0,1-9.82,3.13,22.72,22.72,0,0,1-11.63-1.37,19.39,19.39,0,0,1-8.45-6.73,24.15,24.15,0,0,1-4.16-10.9A23.25,23.25,0,0,1,140.62,288.41Z"/><path class="cls-11" d="M219.18,273.8a19.24,19.24,0,0,1,8.5,7.25A21.21,21.21,0,0,1,230.93,292a22.13,22.13,0,0,1-2.33,11.19,20.3,20.3,0,0,1-7.54,8.1,24.75,24.75,0,0,1-11.69,3.48c-6,.34-12,.8-18,1.31-1.2-14.32-2.34-28.58-3.54-42.9q9.4-.78,18.83-1.37A25.42,25.42,0,0,1,219.18,273.8Zm-4.68,26.08a9.2,9.2,0,0,0,2.34-7.25c-.17-3.08-1.2-5.42-3.14-7a11,11,0,0,0-7.64-2.05c-1.14.05-2.23.17-3.37.22.46,6.39.86,12.78,1.32,19.17,1.08-.05,2.16-.17,3.25-.22A10.39,10.39,0,0,0,214.5,299.88Z"/><path class="cls-11" d="M264.31,270c0,14.32,0,28.7.06,43-4.51,0-9.07.06-13.58.11-.23-14.32-.46-28.69-.68-43C254.84,270,259.58,270,264.31,270Z"/><path class="cls-11" d="M308.24,271c-.17,3.54-.34,7.13-.51,10.67-3.94-.17-7.93-.34-11.87-.46-.34,10.79-.68,21.57-1.08,32.3-4.51-.18-9-.29-13.58-.35.17-10.78.4-21.56.57-32.35-3.94-.05-7.87-.11-11.75-.11,0-3.54.05-7.13.05-10.67C282.8,270,295.52,270.32,308.24,271Z"/><path class="cls-11" d="M340.08,309.58c-4.85-.4-9.64-.75-14.49-1.09L323,314.82c-4.74-.28-9.47-.57-14.21-.79,5.94-14.1,12.16-28.07,18.6-42,5.48.34,10.9.74,16.38,1.2q6.42,22.15,12.15,44.33c-4.73-.46-9.47-.92-14.26-1.32C341.11,314,340.59,311.8,340.08,309.58Zm-2.57-10.39c-1-4.11-2.05-8.16-3.08-12.26-1.65,3.88-3.25,7.75-4.85,11.63C332.21,298.79,334.89,299,337.51,299.19Z"/><path class="cls-11" d="M375.57,309.46c4.39.52,8.78,1.09,13.12,1.71-.46,3.37-.91,6.74-1.37,10.1-8.79-1.2-17.63-2.28-26.47-3.19,1.54-14.27,3-28.53,4.56-42.79,4.74.51,9.42,1,14.15,1.59C378.19,287.72,376.88,298.62,375.57,309.46Z"/><path class="cls-11" d="M442.61,286.7c-7.25,8.78-14.27,17.68-21.17,26.58l-2.23,12.9c-4.45-.8-8.95-1.48-13.4-2.23l2.05-12.89q-5.48-16-11.47-32,8.06,1.11,16.09,2.4c1.6,5.42,3.14,10.78,4.68,16.2,3.2-4.62,6.39-9.24,9.64-13.86Z"/></g><path class="cls-2" d="M264.65,246.42A970.07,970.07,0,0,0,60.91,268.1v97.1a873.29,873.29,0,0,1,206.31-24.42A859,859,0,0,1,468.57,365.2V268.1A970.61,970.61,0,0,0,264.65,246.42Z"/><path class="cls-11" d="M107,284.94l7.73,42.49-13.32,2.42-7.74-42.49Z"/><path class="cls-11" d="M147.55,278.62l1.58,10.62-11.34,1.69L142.58,323l-13.39,2-4.79-32.09-11.22,1.67L111.59,284Z"/><path class="cls-11" d="M183.94,311.63l-14.32,1.43-1.48,6.71L154,321.19l11.42-44.55L181,275.08l20,41.41-14.2,1.42Zm-4.29-9.81-5.08-11.57-2.69,12.35Z"/><path class="cls-11" d="M216.47,305.57l13-.72.56,10.23-26.56,1.46-2.36-43.12,13.52-.74Z"/><path class="cls-11" d="M274.89,271.2l-15.16,30.24.15,13.12-13.54.15-.15-13.11-15.83-29.9,15.49-.18,7.07,15.24,6.72-15.39Z"/><path class="cls-11" d="M300.79,293.53q5-4.74,5.18-9.07a3.51,3.51,0,0,0-.53-2.29,2.1,2.1,0,0,0-1.64-.87,2.15,2.15,0,0,0-2,1.17,7,7,0,0,0-.69,3.78l-13.1-.6a18.45,18.45,0,0,1,2.89-9.21,13.82,13.82,0,0,1,6.19-5.09,18.83,18.83,0,0,1,8.13-1.34c5.19.24,8.95,1.67,11.25,4.28a13.24,13.24,0,0,1,3.18,9.76,19.31,19.31,0,0,1-4.46,11.37A35.33,35.33,0,0,1,305,304.07l13.95.65-.5,10.9-31.51-1.45.47-10.17A105.65,105.65,0,0,0,300.79,293.53Z"/><path class="cls-11" d="M329.11,277.4q5-5.62,14.29-4.79t13.2,7.26q4,6.45,3,16.9t-6,16.16q-5,5.64-14.27,4.82t-13.22-7.27q-3.93-6.44-3-17T329.11,277.4ZM346,288.18a3.83,3.83,0,0,0-3.73-2.81,3.89,3.89,0,0,0-4.23,2.1,28.53,28.53,0,0,0-1.31,14.7,3.9,3.9,0,0,0,3.8,2.82,3.83,3.83,0,0,0,4.16-2.11,28.37,28.37,0,0,0,1.31-14.7Z"/><path class="cls-11" d="M376.38,300q5.36-4.3,5.93-8.6a3.51,3.51,0,0,0-.34-2.32,2,2,0,0,0-1.56-1,2.12,2.12,0,0,0-2.07,1,7,7,0,0,0-1,3.71l-13-1.72a18.48,18.48,0,0,1,3.67-8.93,13.82,13.82,0,0,1,6.6-4.54,18.81,18.81,0,0,1,8.2-.64q7.74,1,10.85,5.22a13.25,13.25,0,0,1,2.34,10,19.26,19.26,0,0,1-5.41,10.94,35.18,35.18,0,0,1-11,7.75l13.85,1.83L392,323.54l-31.27-4.13,1.34-10.1A106,106,0,0,0,376.38,300Z"/><path class="cls-11" d="M397.08,318.09l2-11.11,22.43-22.34,14.36,2.55-4.47,25.1,4.33.77-2,11.53-4.32-.77-1.18,6.61L414.71,328l1.17-6.61Zm23.69-17.91-8.24,8.76,6.48,1.15Z"/><path d="M11.36,580.41h8.39v7.89A10.9,10.9,0,0,1,12,591.46a9.88,9.88,0,1,1,0-19.75,11,11,0,0,1,7.71,3.17l-3,2.67A6.4,6.4,0,0,0,12,575.44a6.15,6.15,0,0,0,0,12.3,6.07,6.07,0,0,0,3.67-1.25v-2.92H11.3v-3.16Z"/><path d="M34.84,584.63l4.6,6.52H34.78l-4.35-6.21H28v6.21h-4.1V572.08h8.57c4.16,0,7.2,2.67,7.2,6.46A6.34,6.34,0,0,1,34.84,584.63ZM28,581.21h4c2.05,0,3.42-1.05,3.42-2.67S34,575.87,32,575.87H28Z"/><path d="M42.23,581.59a10.16,10.16,0,1,1,10.19,9.87A10.17,10.17,0,0,1,42.23,581.59Zm16.09,0a5.93,5.93,0,1,0-5.9,6.15A6.15,6.15,0,0,0,58.32,581.59Z"/><path d="M64.6,572h4.47l3.54,12.8L76.84,572h4.47l4.22,12.8L89,572h4.47l-5.77,19.07H83.54L79.07,578l-4.53,13.11H70.37Z"/><path d="M96.71,572h4.1v19.07h-4.1Z"/><path d="M105.6,572h4.1l9.19,12.36V572H123v19.07h-4.1l-9.19-12.36v12.36h-4.1Z"/><path d="M136.22,580.41h8.39v7.89a10.85,10.85,0,0,1-7.7,3.16,9.88,9.88,0,1,1,0-19.75,10.94,10.94,0,0,1,7.7,3.17l-3,2.67a6.42,6.42,0,0,0-4.72-2.11,6.15,6.15,0,0,0,0,12.3,6,6,0,0,0,3.66-1.25v-2.92h-4.41v-3.16Z"/><path d="M155.17,581.59a10.17,10.17,0,0,1,10.19-9.88,10.35,10.35,0,0,1,7.39,3.17l-3,2.67a5.68,5.68,0,0,0-4.41-2.11,6.15,6.15,0,0,0,0,12.3,5.88,5.88,0,0,0,4.41-2.12l3,2.68a10.2,10.2,0,0,1-17.58-6.71Z"/><path d="M189.59,587.43v3.66H176V572h4.1v15.41Z"/><path d="M191.76,581.59A10.17,10.17,0,0,1,202,571.71a9.88,9.88,0,1,1-10.19,9.88Zm16.09,0a5.93,5.93,0,1,0-5.9,6.15A6.15,6.15,0,0,0,207.85,581.59Z"/><path d="M215.37,582.89V572.08h4.1v10.69c0,2.92,1.86,5,4.53,5s4.54-2.11,4.54-5V572.08h4.1v10.81a8.64,8.64,0,0,1-17.27,0Z"/><path d="M237.05,572h6.83c6.4,0,11,3.91,11,9.5s-4.54,9.57-11,9.57h-6.83Zm7.39,15.41c3.67,0,6.21-2.43,6.21-5.84s-2.61-5.78-6.21-5.78h-3.29v11.62Z"/><path d="M266.06,572h4.1l9.19,12.36V572h4.1v19.07h-4.1l-9.19-12.36v12.36h-4.1Z"/><path d="M300.78,587.86h-8.26l-1.3,3.29h-4.6l7.77-19.07H299l7.77,19.07h-4.6Zm-1.3-3.23-2.86-7-2.85,7Z"/><path d="M314.27,575.75h-6v-3.67h16v3.67h-6v15.4h-4.1v-15.4Z"/><path d="M327.56,572h4.1v19.07h-4.1Z"/><path d="M355,572l-7.77,19.07h-4.6L334.83,572h4.59l5.47,13.42L350.36,572Z"/><path d="M362.16,575.75v3.79h9.63v3.66h-9.63v4.23h10.56v3.66H358V572h14.72v3.66H362.16Z"/><path d="M388.69,575.75h-6v-3.67h16v3.67h-6v15.4h-4.1v-15.4Z"/><path d="M400.86,581.59a10.16,10.16,0,1,1,10.19,9.87A10.17,10.17,0,0,1,400.86,581.59Zm16.09,0a5.93,5.93,0,1,0-5.9,6.15A6.15,6.15,0,0,0,417,581.59Z"/><path d="M433.29,580.41h8.39v7.89a10.9,10.9,0,0,1-7.71,3.16,9.88,9.88,0,1,1,0-19.75,11,11,0,0,1,7.71,3.17l-3,2.67a6.44,6.44,0,0,0-4.73-2.11,6.15,6.15,0,0,0,0,12.3,6.07,6.07,0,0,0,3.67-1.25v-2.92h-4.41v-3.16Z"/><path d="M449.88,575.75v3.79h9.63v3.66h-9.63v4.23h10.56v3.66H445.78V572H460.5v3.66H449.88Z"/><path d="M468.82,575.75h-6v-3.67h16v3.67h-6v15.4h-4.1v-15.4Z"/><path d="M499,572v19.07h-4.1V583.2h-8.7v7.89h-4.1V572h4.1v7.52h8.7V572Z"/><path d="M508,575.75v3.79h9.63v3.66H508v4.23h10.56v3.66H503.86V572h14.72v3.66H508Z"/><path d="M533.56,584.63l4.59,6.52h-4.66l-4.35-6.21h-2.48v6.21h-4.1V572.08h8.57c4.16,0,7.21,2.67,7.21,6.46A6.35,6.35,0,0,1,533.56,584.63Zm-6.9-3.42h4c2,0,3.41-1.05,3.41-2.67s-1.36-2.67-3.41-2.67h-4Z"/></g></g></svg>