<?xml version="1.0" encoding="UTF-8" standalone="no"?><!-- Generator: Gravit.io --><svg xmlns="http://www.w3.org/2000/svg" xmlns:xlink="http://www.w3.org/1999/xlink" style="isolation:isolate" viewBox="0 0 1800 350" width="1800pt" height="350pt"><defs><clipPath id="_clipPath_sI4E3LEQvxo0ZeCodTmL4RutQHDRrrib"><rect width="1800" height="350"/></clipPath></defs><g clip-path="url(#_clipPath_sI4E3LEQvxo0ZeCodTmL4RutQHDRrrib)"><g><path d=" M 1685.147 74.429 C 1678.016 75.437 1675.473 75.89 1670.635 77.201 C 1652.035 82.089 1632.686 91.565 1616.679 103.56 C 1610.495 108.197 1599.125 119.486 1594.936 125.131 L 1592.044 129.012 L 1586.459 129.012 C 1579.826 129.012 1575.089 129.718 1570.7 131.482 C 1558.034 136.471 1549.108 148.063 1544.52 165.401 C 1543.024 170.995 1542.924 174.019 1544.121 175.229 C 1545.118 176.237 1548.011 176.086 1564.966 174.17 C 1571 173.465 1576.336 172.91 1576.834 172.91 C 1577.582 172.91 1577.682 173.414 1577.682 176.489 C 1577.682 178.656 1577.981 180.722 1578.43 181.68 C 1578.879 182.587 1582.419 186.518 1586.309 190.399 C 1593.889 198.01 1593.34 197.707 1599.773 198.362 C 1602.566 198.665 1602.616 198.715 1602.616 200.328 C 1602.616 201.185 1602.267 204.511 1601.868 207.687 C 1600.571 218.321 1599.474 230.266 1599.773 231.072 C 1599.923 231.475 1600.621 232.181 1601.269 232.635 C 1602.416 233.34 1602.865 233.34 1607.403 232.332 C 1626.752 228.099 1640.565 217.111 1644.654 202.647 C 1645.801 198.614 1646.649 190.752 1646.35 187.174 L 1646.051 184.049 L 1650.389 180.672 C 1656.722 175.733 1666.546 165.502 1671.683 158.546 C 1687.69 137.026 1699.21 108.499 1700.207 88.238 C 1700.606 79.872 1700.157 76.344 1698.611 75.336 C 1697.414 74.58 1688.488 73.925 1685.147 74.429 Z  M 1650.589 111.473 C 1654.029 112.178 1656.772 113.842 1659.415 116.714 C 1662.706 120.293 1663.704 122.964 1663.704 128.054 C 1663.704 133.246 1662.357 136.622 1658.917 140.1 C 1655.526 143.527 1652.134 144.938 1646.998 144.938 C 1643.308 144.938 1642.41 144.737 1639.867 143.477 C 1632.985 139.949 1628.946 131.885 1630.542 124.93 C 1632.138 118.126 1636.576 113.338 1642.959 111.624 C 1645.901 110.817 1647.347 110.767 1650.589 111.473 Z " fill="rgb(21,21,21)"/><path d=" M 1569.659 182.688 C 1563.226 184.25 1558.439 188.585 1556.045 194.986 C 1553.602 201.437 1551.757 211.668 1551.158 222.202 L 1550.809 227.847 L 1553.003 227.595 C 1554.2 227.494 1557.89 227.141 1561.182 226.839 C 1568.612 226.133 1578.186 224.218 1582.724 222.555 C 1584.619 221.849 1587.213 220.438 1588.559 219.379 C 1591.501 217.111 1594.543 212.172 1595.391 208.392 C 1595.939 205.923 1595.889 205.519 1595.191 204.763 C 1594.493 204.058 1594.144 204.058 1593.446 204.562 C 1589.855 207.132 1584.22 208.594 1580.281 207.989 C 1575.444 207.233 1570.906 202.697 1570.158 197.858 C 1569.759 194.885 1570.656 190.55 1572.452 186.821 C 1574.097 183.394 1574.197 182.738 1573.1 182.285 C 1572.651 182.134 1572.302 181.982 1572.252 182.033 C 1572.202 182.033 1571.055 182.335 1569.659 182.688 Z " fill="rgb(255,78,126)"/></g><g><path d=" M 243.517 153.443 L 233.447 153.995 L 233.447 158.685 C 233.447 162.823 233.999 163.375 237.999 164.203 C 248.207 166.272 247.379 160.616 246.965 219.103 L 246.551 271.658 L 240.068 273.589 C 233.861 275.244 233.447 275.658 233.447 280.21 L 233.447 284.9 L 257.587 284.9 L 281.726 284.9 L 281.726 280.21 C 281.726 275.658 281.45 275.52 273.864 273.589 L 265.863 271.658 L 265.449 212.068 L 265.173 152.478 L 259.242 152.754 C 256.069 152.892 248.896 153.305 243.517 153.443 Z " fill="rgb(21,21,21)"/><path d=" M 302.279 156.478 C 298.003 159.927 297.589 169.996 301.589 174.41 C 307.797 181.307 320.349 175.514 320.349 165.858 C 320.349 155.65 310.004 150.271 302.279 156.478 Z " fill="rgb(21,21,21)"/><path d=" M 515.259 165.444 C 490.567 173.445 477.601 194.412 477.601 226 C 477.601 249.312 482.705 264.071 494.568 274.693 C 510.293 288.9 539.674 290.28 559.261 277.727 C 576.09 267.106 585.194 248.07 585.194 223.517 C 585.194 196.067 575.125 177.031 555.813 168.203 C 548.64 165.03 545.054 164.341 534.156 163.927 C 525.742 163.651 518.983 164.203 515.259 165.444 Z  M 541.743 178.824 C 549.881 180.893 557.882 188.066 561.882 196.894 C 564.779 203.378 565.193 206.136 565.193 222.827 C 565.193 243.932 563.262 251.795 556.089 260.485 C 541.743 277.865 512.362 275.382 502.43 255.933 C 496.775 245.036 495.119 219.379 498.982 204.205 C 504.361 183.376 520.776 173.583 541.743 178.824 Z " fill="rgb(21,21,21)"/><path d=" M 994.048 165.996 C 984.255 169.444 980.392 172.341 975.978 178.962 C 972.806 183.514 972.116 186.549 971.702 194.687 C 970.736 213.033 977.909 221.586 1002.463 231.104 C 1020.671 238.139 1023.981 239.794 1028.119 243.656 C 1033.775 248.898 1033.775 258.002 1028.257 263.933 C 1020.671 272.072 1003.98 274.279 991.289 269.037 C 987.565 267.52 986.875 266.278 985.91 260.761 C 984.53 250.691 984.255 250.415 976.806 250.415 L 969.909 250.415 L 970.323 265.175 L 970.736 279.934 L 979.013 282.693 C 991.427 286.693 1019.291 286.693 1027.982 282.693 C 1042.465 275.934 1050.052 264.623 1050.052 249.726 C 1050.052 233.587 1041.776 225.31 1016.533 216.068 C 992.945 207.378 985.082 198.964 990.462 188.204 C 994.186 180.893 1000.669 177.997 1012.808 178.135 C 1027.706 178.411 1029.361 179.376 1032.809 189.86 L 1035.844 198.688 L 1041.224 198.688 L 1046.603 198.688 L 1047.017 184.066 L 1047.431 169.444 L 1037.361 166.962 C 1022.602 163.237 1002.876 162.823 994.048 165.996 Z " fill="rgb(21,21,21)"/><path d=" M 22.123 165.858 C 18.812 166.41 18.261 167.099 18.261 170.962 C 18.261 175.238 18.537 175.514 24.882 176.755 L 31.365 177.997 L 31.779 224.482 L 32.055 270.968 L 26.951 272.348 C 24.054 273.175 20.882 273.865 20.054 273.865 C 18.95 273.865 18.261 275.934 18.261 279.383 L 18.261 284.9 L 41.711 284.9 L 65.16 284.9 L 65.16 280.072 C 65.16 277.314 64.333 274.831 63.505 274.555 C 62.539 274.279 59.091 273.313 55.78 272.486 L 49.987 270.968 L 50.263 224.62 L 50.677 178.135 L 57.574 176.755 C 64.195 175.238 64.471 175.1 64.884 169.996 L 65.298 164.892 L 45.573 165.03 C 34.676 165.168 24.192 165.582 22.123 165.858 Z " fill="rgb(21,21,21)"/><path d=" M 95.921 172.065 L 89.99 173.307 L 89.99 184.342 L 89.99 195.239 L 86.265 195.239 C 84.058 195.239 80.058 195.653 77.299 196.067 C 72.333 196.894 72.057 197.17 72.057 202.274 L 72.057 207.654 L 80.885 207.654 L 89.852 207.654 L 90.265 241.035 C 90.679 271.244 90.955 274.969 93.3 278.417 C 99.232 287.107 111.094 288.763 124.612 282.693 C 129.164 280.624 132.751 278.555 132.751 277.865 C 132.751 276.072 129.578 269.727 128.751 269.727 C 128.337 269.727 125.44 270.692 122.405 271.796 C 114.819 274.417 113.853 274.417 109.991 270.417 C 106.542 267.106 106.542 267.106 106.542 237.311 L 106.542 207.654 L 118.957 207.654 L 131.372 207.654 L 131.372 201.447 L 131.372 195.239 L 118.957 195.239 L 106.542 195.239 L 106.542 182.825 C 106.542 169.031 107.094 169.444 95.921 172.065 Z " fill="rgb(21,21,21)"/><path d=" M 158.96 195.653 C 151.925 197.446 147.235 199.377 147.373 200.343 C 147.511 201.309 147.648 206.136 147.786 211.102 L 147.924 220.068 L 153.304 220.068 C 158.96 220.068 160.339 218.551 160.339 212.482 C 160.339 207.93 163.098 206.274 172.891 205.447 C 183.651 204.343 191.375 207.102 193.445 212.482 C 194.272 214.551 194.824 220.068 194.824 224.758 L 194.824 233.449 L 180.754 234.276 C 164.477 235.38 158.408 236.759 151.925 241.173 C 144.752 245.863 142.131 252.07 142.683 263.106 C 143.51 277.589 150.407 285.038 164.339 286.004 C 174.133 286.693 180.616 284.762 188.755 278.555 C 192.065 275.934 195.1 273.865 195.514 273.865 C 195.79 273.865 196.893 276.348 197.721 279.383 L 199.376 284.9 L 207.101 284.9 C 211.377 284.9 217.17 284.486 220.067 284.073 C 224.757 283.245 225.171 282.831 225.171 278.693 C 225.171 274.555 224.757 274.141 219.377 273.037 L 213.446 271.796 L 212.756 240.759 C 211.928 208.619 211.515 206.412 205.445 199.653 C 198.686 192.342 178.823 190.549 158.96 195.653 Z  M 194.824 252.208 C 194.824 258.692 194.272 260.071 190.41 263.795 C 181.996 271.658 171.236 274.693 164.477 271.106 C 161.167 269.313 158.546 261.175 159.649 255.933 C 161.305 248.622 169.167 245.311 186.272 245.036 L 194.824 244.898 L 194.824 252.208 Z " fill="rgb(21,21,21)"/><path d=" M 363.8 194.412 C 350.006 197.584 347.937 198.826 347.937 203.24 C 347.937 205.447 348.351 210.137 348.765 213.723 C 349.731 220.068 349.731 220.068 354.972 220.068 C 360.076 220.068 360.214 219.93 361.18 213.861 C 362.007 208.068 362.421 207.654 367.801 206.136 C 370.835 205.309 376.767 204.895 380.905 205.171 C 387.112 205.723 389.043 206.55 392.354 210.275 C 395.803 214.137 396.216 215.654 396.216 224.069 L 396.216 233.449 L 382.146 234.276 C 360.49 235.656 351.662 239.242 346.006 248.898 C 342.42 255.243 342.42 267.52 346.144 274.693 C 353.455 288.9 376.491 290.28 391.526 277.589 C 394.009 275.52 396.216 273.865 396.492 273.865 C 396.906 273.865 397.872 276.348 398.837 279.383 C 400.492 284.762 400.492 284.9 407.114 284.9 C 410.838 284.9 416.631 284.486 420.218 284.073 C 426.287 283.245 426.563 282.969 426.563 278.555 C 426.563 275.658 425.873 273.865 424.908 273.865 C 423.942 273.865 420.77 273.175 418.011 272.348 L 412.769 270.968 L 412.769 240.346 C 412.769 205.033 412.079 202.55 401.596 196.619 C 394.147 192.48 376.629 191.515 363.8 194.412 Z  M 396.216 252.208 C 396.216 258.692 395.665 260.071 391.802 263.795 C 385.595 269.589 379.388 272.486 373.042 272.486 C 365.456 272.486 361.593 269.037 360.766 261.312 C 359.524 249.863 366.697 245.449 387.664 245.036 L 396.216 244.898 L 396.216 252.208 Z " fill="rgb(21,21,21)"/><path d=" M 642.577 194.687 C 639.542 195.791 635.128 198.274 632.508 200.205 C 628.231 203.378 627.956 203.516 627.956 200.895 C 627.956 193.446 626.162 192.894 606.989 194.825 C 597.747 195.653 597.609 195.653 597.609 199.653 C 597.609 203.791 597.747 203.929 606.989 206.274 L 612.782 207.792 L 612.506 259.657 L 612.092 311.661 L 605.885 313.178 C 600.092 314.557 599.678 314.971 599.264 319.799 L 598.85 324.903 L 622.99 324.903 L 647.267 324.903 L 647.267 320.075 C 647.267 314.971 647.543 315.109 635.542 312.764 L 630.025 311.661 L 629.611 298.556 L 629.197 285.59 L 644.095 285.59 C 662.441 285.59 670.303 282.693 679.683 272.21 C 687.959 262.968 690.718 254.553 690.718 237.311 C 690.718 219.379 687.821 210.826 679.131 202.136 C 669.751 192.756 655.544 189.86 642.577 194.687 Z  M 662.165 209.033 C 669.613 213.585 672.786 222.275 672.786 238.69 C 672.786 250.691 672.372 253.312 669.338 259.243 C 664.234 269.313 660.233 271.658 647.543 272.21 C 641.75 272.486 635.266 272.072 633.197 271.244 L 629.335 269.727 L 629.335 243.794 C 629.335 222.551 629.749 217.31 631.542 214.827 C 637.198 206.688 653.336 203.654 662.165 209.033 Z " fill="rgb(21,21,21)"/><path d=" M 732.376 194.412 C 714.444 201.033 703.823 218.551 703.823 241.449 C 703.823 253.312 706.443 262.83 712.099 271.244 C 723.134 288.073 750.17 291.245 772.379 278.417 C 780.793 273.589 781.483 272.348 777.896 267.934 L 774.862 264.209 L 767.551 267.796 C 758.861 272.21 743.549 273.865 736.928 271.106 C 728.514 267.658 721.755 256.485 721.755 246.001 L 721.755 242.139 L 751.136 241.863 L 780.379 241.449 L 780.793 232.069 C 781.483 214.689 775.689 202.412 763.964 196.343 C 756.791 192.618 739.963 191.515 732.376 194.412 Z  M 754.86 208.895 C 759.274 211.93 763.137 219.517 763.137 225.172 L 763.137 229.724 L 743.273 229.724 C 732.238 229.724 722.996 229.31 722.72 228.621 C 721.341 226.414 726.031 214.965 729.893 211.24 C 736.652 204.757 747.412 203.654 754.86 208.895 Z " fill="rgb(21,21,21)"/><path d=" M 838.866 195.653 C 834.728 197.446 828.934 200.619 826.175 202.688 L 821.072 206.55 L 821.072 203.378 C 821.072 201.584 820.658 198.688 820.244 196.894 C 819.278 193.446 816.106 193.17 800.518 194.687 L 792.104 195.653 L 792.104 200.205 C 792.104 203.102 792.794 204.895 793.897 204.895 C 794.725 204.895 797.898 205.585 800.794 206.412 L 805.898 207.792 L 805.622 239.794 L 805.208 271.658 L 798.725 273.589 C 792.518 275.244 792.104 275.658 792.104 280.21 L 792.104 284.9 L 813.485 284.9 L 834.866 284.9 L 834.866 280.348 C 834.866 276.21 834.314 275.382 829.348 273.451 L 823.83 271.382 L 823.83 245.173 L 823.83 218.827 L 829.072 214.551 C 835.003 209.585 847.004 205.723 852.66 206.964 C 854.867 207.378 858.039 209.309 859.833 211.24 C 863.005 214.689 863.143 215.516 863.557 242.966 L 863.971 271.106 L 858.453 273.313 C 853.349 275.244 852.798 276.072 852.798 280.21 L 852.798 284.9 L 873.489 284.9 L 894.18 284.9 L 894.18 280.21 C 894.18 275.796 893.766 275.382 887.283 273.175 L 880.386 270.83 L 880.386 242.001 C 880.386 210.551 879.696 206.55 872.523 198.964 C 865.626 191.929 851.556 190.549 838.866 195.653 Z " fill="rgb(21,21,21)"/><path d=" M 1096.952 193.722 C 1078.881 199.239 1067.57 214.413 1065.777 235.38 C 1064.26 252.208 1068.122 265.864 1076.812 274.969 C 1083.571 282.279 1090.744 285.314 1102.607 286.004 C 1126.609 287.383 1143.161 274.003 1147.989 249.312 C 1152.955 224.345 1141.92 200.205 1123.022 194.687 C 1115.435 192.342 1102.883 191.929 1096.952 193.722 Z  M 1120.125 209.033 C 1127.712 213.723 1130.747 222.275 1130.747 239.38 C 1130.747 251.795 1130.333 254.829 1127.574 260.347 C 1123.298 268.899 1117.505 272.486 1107.849 272.486 C 1092.675 272.486 1084.675 263.382 1083.433 244.484 C 1081.916 219.655 1090.468 206.274 1107.987 206.274 C 1113.228 206.274 1116.953 207.102 1120.125 209.033 Z " fill="rgb(21,21,21)"/><path d=" M 1315.035 194.55 C 1312.414 195.791 1307.586 198.826 1304.413 201.447 L 1298.482 206.274 L 1298.068 200.481 C 1297.516 193.446 1296.965 193.17 1280.826 194.55 L 1269.377 195.515 L 1269.377 200.067 C 1269.377 204.205 1269.79 204.619 1274.618 205.447 C 1285.516 207.378 1284.55 204.343 1284.55 239.38 L 1284.55 270.968 L 1276.963 273.175 C 1269.652 275.382 1269.377 275.658 1269.377 280.21 L 1269.377 284.9 L 1293.516 284.9 L 1317.656 284.9 L 1317.656 280.072 C 1317.656 275.658 1317.242 275.244 1311.862 273.865 C 1308.551 273.037 1304.827 272.072 1303.586 271.658 C 1301.379 270.968 1301.103 268.485 1301.103 245.036 L 1301.103 219.241 L 1304.965 215.654 C 1309.379 211.378 1315.311 208.344 1321.38 207.102 C 1326.07 205.999 1326.07 206.136 1328.001 215.516 C 1328.829 219.655 1329.38 220.068 1334.208 220.068 L 1339.588 220.068 L 1340.002 207.516 C 1340.278 200.619 1339.864 194.687 1339.174 194.274 C 1336.002 192.342 1319.449 192.48 1315.035 194.55 Z " fill="rgb(21,21,21)"/><path d=" M 1377.659 194.274 C 1364.279 198.826 1357.244 205.171 1351.175 217.999 C 1347.726 225.448 1347.313 227.655 1347.313 240.759 C 1347.451 252.76 1348.002 256.485 1350.485 262.002 C 1355.037 272.21 1359.313 276.9 1367.452 281.314 C 1381.522 289.038 1402.213 287.245 1418.076 277.038 L 1423.731 273.313 L 1420.973 267.934 C 1418.352 262.83 1418.076 262.692 1415.593 264.899 C 1408.42 271.382 1388.005 274.693 1380.004 270.554 C 1370.9 265.864 1365.935 256.485 1364.969 242.139 C 1363.727 224.207 1369.107 211.93 1380.142 207.792 C 1384.556 206.136 1401.661 205.723 1404.144 207.378 C 1404.972 207.93 1406.075 210.137 1406.489 212.206 C 1406.903 214.275 1407.592 217.585 1408.006 219.517 C 1408.696 222.551 1409.386 222.965 1413.938 222.551 L 1419.041 222.138 L 1419.455 210.275 L 1419.869 198.412 L 1412.558 196.067 C 1402.902 192.894 1384.832 191.929 1377.659 194.274 Z " fill="rgb(21,21,21)"/><path d=" M 1460.699 194.412 C 1442.767 201.033 1432.146 218.551 1432.146 241.449 C 1432.146 253.312 1434.767 262.83 1440.422 271.244 C 1451.457 288.073 1478.494 291.245 1500.702 278.417 C 1509.116 273.589 1509.806 272.348 1506.22 267.934 L 1503.185 264.209 L 1495.874 267.796 C 1487.184 272.21 1471.872 273.865 1465.251 271.106 C 1456.837 267.658 1450.078 256.485 1450.078 246.001 L 1450.078 242.139 L 1479.459 241.863 L 1508.702 241.449 L 1509.116 232.069 C 1509.806 214.689 1504.012 202.412 1492.288 196.343 C 1485.115 192.618 1468.286 191.515 1460.699 194.412 Z  M 1483.184 208.895 C 1487.598 211.93 1491.46 219.517 1491.46 225.172 L 1491.46 229.724 L 1471.597 229.724 C 1460.561 229.724 1451.319 229.31 1451.044 228.621 C 1449.664 226.414 1454.354 214.965 1458.216 211.24 C 1464.975 204.757 1475.735 203.654 1483.184 208.895 Z " fill="rgb(21,21,21)"/><path d=" M 293.865 194.825 C 287.382 195.377 287.244 195.515 287.244 199.929 C 287.244 204.205 287.658 204.619 292.485 205.447 C 303.383 207.378 302.417 204.343 302.417 239.38 L 302.417 270.968 L 294.83 273.175 C 287.52 275.382 287.244 275.658 287.244 280.21 L 287.244 284.9 L 309.314 284.9 L 331.385 284.9 L 331.385 280.21 C 331.385 275.934 330.833 275.244 325.591 273.589 L 319.66 271.52 L 319.246 232.759 L 318.97 193.86 L 309.59 194.136 C 304.486 194.274 297.451 194.55 293.865 194.825 Z " fill="rgb(21,21,21)"/><path d=" M 1164.266 194.825 C 1157.783 195.377 1157.645 195.515 1157.645 200.205 C 1157.645 202.964 1158.335 204.895 1159.438 204.895 C 1160.266 204.895 1163.301 205.585 1166.197 206.274 L 1171.163 207.654 L 1171.715 237.725 C 1172.129 266.692 1172.267 267.934 1175.577 273.865 C 1183.854 288.763 1205.372 290.28 1224.684 277.176 C 1230.34 273.313 1232.133 274.141 1232.133 281.038 C 1232.133 284.762 1232.409 284.9 1239.444 284.9 C 1243.306 284.9 1249.927 284.486 1253.927 284.073 C 1260.686 283.245 1261.1 282.969 1261.1 279.107 C 1261.1 274.969 1260.962 274.831 1251.858 272.486 L 1245.927 270.968 L 1245.927 232.483 L 1245.927 193.86 L 1240.685 193.86 C 1237.65 193.86 1230.615 194.274 1224.822 194.687 C 1214.201 195.653 1214.201 195.653 1214.201 199.653 C 1214.201 203.791 1214.338 203.929 1223.58 206.274 L 1229.374 207.792 L 1229.374 232.897 L 1229.374 258.14 L 1224.96 262.416 C 1212.683 274.003 1196.13 275.382 1190.475 265.175 C 1189.233 262.968 1188.544 252.346 1188.268 227.931 L 1187.716 193.86 L 1179.302 194.136 C 1174.612 194.274 1167.853 194.55 1164.266 194.825 Z " fill="rgb(21,21,21)"/><path d=" M 906.594 238.001 L 906.594 244.898 L 928.665 244.898 L 950.735 244.898 L 950.735 238.001 L 950.735 231.104 L 928.665 231.104 L 906.594 231.104 L 906.594 238.001 Z " fill="rgb(21,21,21)"/></g><path d=" M 1617.138 25.931 C 1582.757 30.64 1552.358 46.074 1528.521 71.041 C 1512.2 88.121 1500.478 108.775 1493.691 132.38 C 1490.438 143.672 1490.551 147.303 1494.084 150.765 C 1495.542 152.183 1496.215 152.41 1499.02 152.41 C 1501.712 152.41 1502.609 152.126 1504.348 150.765 C 1506.872 148.835 1508.442 146.452 1509.171 143.331 C 1512.088 131.472 1519.603 114.109 1526.39 103.611 C 1542.038 79.439 1566.492 60.146 1593.358 50.841 C 1613.661 43.804 1637.498 41.989 1659.764 45.79 C 1679.395 49.138 1698.969 57.706 1715.795 70.303 C 1722.02 74.956 1733.238 86.021 1738.061 92.263 C 1748.437 105.597 1757.131 122.45 1761.898 138.451 C 1765.151 149.403 1765.936 150.878 1769.582 152.751 C 1775.247 155.701 1780.911 151.389 1780.743 144.296 C 1780.631 139.359 1776.144 124.095 1771.825 113.825 C 1755.392 74.729 1724.04 45.904 1683.489 32.342 C 1674.627 29.392 1662.064 26.611 1653.202 25.647 C 1645.686 24.796 1623.981 24.966 1617.138 25.931 Z " fill="rgb(25,118,210)"/><path d=" M 1775.583 163.588 C 1773.564 164.553 1769.021 166.312 1765.488 167.56 C 1758.084 170.114 1748.83 174.426 1744.904 177.15 C 1738.061 181.86 1733.574 187.42 1728.302 197.691 C 1717.702 218.175 1700.427 235.254 1679.955 245.638 C 1673.001 249.156 1668.289 250.859 1658.474 253.469 C 1654.268 254.547 1649.5 256.079 1647.874 256.817 C 1644.34 258.462 1640.47 262.264 1634.245 270.435 C 1623.42 284.621 1611.081 295.118 1599.471 299.998 C 1593.358 302.551 1592.46 303.402 1592.684 306.58 C 1592.853 308.85 1600.368 311.46 1614.054 313.9 C 1622.298 315.375 1641.985 315.999 1651.183 315.035 C 1680.797 311.914 1711.7 297.728 1734.247 276.96 C 1748.606 263.683 1758.589 250.178 1767.17 232.417 C 1773.676 219.026 1778.219 204.67 1780.351 190.428 C 1781.304 184.129 1782.145 165.631 1781.528 163.248 C 1781.08 161.375 1780.126 161.375 1775.583 163.588 Z " fill="rgb(76,175,80)"/></g></svg>